<mxfile host="app.diagrams.net" modified="2023-04-23T19:56:06.811Z" agent="Mozilla/5.0 (Windows NT 10.0; Win64; x64) AppleWebKit/537.36 (KHTML, like Gecko) Chrome/112.0.0.0 Safari/537.36 Edg/112.0.1722.48" etag="VQ_AoQBkfii09JZhtRVV" version="21.2.1" type="github">
  <diagram name="Strona-1" id="hWERi4DzZwn37XWJgOiT">
    <mxGraphModel dx="2714" dy="915" grid="1" gridSize="10" guides="1" tooltips="1" connect="1" arrows="1" fold="1" page="1" pageScale="1" pageWidth="827" pageHeight="1169" math="0" shadow="0">
      <root>
        <mxCell id="0" />
        <mxCell id="1" parent="0" />
        <mxCell id="B0ij_Wk3o3_kxpDSKMV0-5" style="edgeStyle=orthogonalEdgeStyle;rounded=0;orthogonalLoop=1;jettySize=auto;html=1;exitX=0.5;exitY=1;exitDx=0;exitDy=0;entryX=0.5;entryY=0;entryDx=0;entryDy=0;" edge="1" parent="1" source="B0ij_Wk3o3_kxpDSKMV0-1" target="B0ij_Wk3o3_kxpDSKMV0-2">
          <mxGeometry relative="1" as="geometry" />
        </mxCell>
        <mxCell id="B0ij_Wk3o3_kxpDSKMV0-6" style="edgeStyle=orthogonalEdgeStyle;rounded=0;orthogonalLoop=1;jettySize=auto;html=1;exitX=0.5;exitY=1;exitDx=0;exitDy=0;entryX=0.5;entryY=0;entryDx=0;entryDy=0;" edge="1" parent="1" source="B0ij_Wk3o3_kxpDSKMV0-1" target="B0ij_Wk3o3_kxpDSKMV0-3">
          <mxGeometry relative="1" as="geometry" />
        </mxCell>
        <mxCell id="B0ij_Wk3o3_kxpDSKMV0-7" style="edgeStyle=orthogonalEdgeStyle;rounded=0;orthogonalLoop=1;jettySize=auto;html=1;exitX=0.5;exitY=1;exitDx=0;exitDy=0;entryX=0.5;entryY=0;entryDx=0;entryDy=0;" edge="1" parent="1" source="B0ij_Wk3o3_kxpDSKMV0-1" target="B0ij_Wk3o3_kxpDSKMV0-4">
          <mxGeometry relative="1" as="geometry" />
        </mxCell>
        <mxCell id="B0ij_Wk3o3_kxpDSKMV0-1" value="Klawiatura&lt;br style=&quot;border-color: var(--border-color);&quot;&gt;nr. 1 / ilość 1" style="rounded=1;whiteSpace=wrap;html=1;fillColor=#EA6B66;" vertex="1" parent="1">
          <mxGeometry x="220" y="140" width="120" height="60" as="geometry" />
        </mxCell>
        <mxCell id="B0ij_Wk3o3_kxpDSKMV0-13" style="edgeStyle=orthogonalEdgeStyle;rounded=0;orthogonalLoop=1;jettySize=auto;html=1;exitX=0.5;exitY=1;exitDx=0;exitDy=0;entryX=0.5;entryY=0;entryDx=0;entryDy=0;" edge="1" parent="1" source="B0ij_Wk3o3_kxpDSKMV0-2" target="B0ij_Wk3o3_kxpDSKMV0-8">
          <mxGeometry relative="1" as="geometry" />
        </mxCell>
        <mxCell id="B0ij_Wk3o3_kxpDSKMV0-14" style="edgeStyle=orthogonalEdgeStyle;rounded=0;orthogonalLoop=1;jettySize=auto;html=1;exitX=0.5;exitY=1;exitDx=0;exitDy=0;entryX=0.5;entryY=0;entryDx=0;entryDy=0;" edge="1" parent="1" source="B0ij_Wk3o3_kxpDSKMV0-2" target="B0ij_Wk3o3_kxpDSKMV0-9">
          <mxGeometry relative="1" as="geometry" />
        </mxCell>
        <mxCell id="B0ij_Wk3o3_kxpDSKMV0-15" style="edgeStyle=orthogonalEdgeStyle;rounded=0;orthogonalLoop=1;jettySize=auto;html=1;exitX=0.5;exitY=1;exitDx=0;exitDy=0;entryX=0.5;entryY=0;entryDx=0;entryDy=0;" edge="1" parent="1" source="B0ij_Wk3o3_kxpDSKMV0-2" target="B0ij_Wk3o3_kxpDSKMV0-10">
          <mxGeometry relative="1" as="geometry" />
        </mxCell>
        <mxCell id="B0ij_Wk3o3_kxpDSKMV0-16" style="edgeStyle=orthogonalEdgeStyle;rounded=0;orthogonalLoop=1;jettySize=auto;html=1;exitX=0.5;exitY=1;exitDx=0;exitDy=0;entryX=0.5;entryY=0;entryDx=0;entryDy=0;" edge="1" parent="1" source="B0ij_Wk3o3_kxpDSKMV0-2" target="B0ij_Wk3o3_kxpDSKMV0-11">
          <mxGeometry relative="1" as="geometry" />
        </mxCell>
        <mxCell id="B0ij_Wk3o3_kxpDSKMV0-17" style="edgeStyle=orthogonalEdgeStyle;rounded=0;orthogonalLoop=1;jettySize=auto;html=1;exitX=0.5;exitY=1;exitDx=0;exitDy=0;entryX=0.5;entryY=0;entryDx=0;entryDy=0;" edge="1" parent="1" source="B0ij_Wk3o3_kxpDSKMV0-2" target="B0ij_Wk3o3_kxpDSKMV0-12">
          <mxGeometry relative="1" as="geometry" />
        </mxCell>
        <mxCell id="B0ij_Wk3o3_kxpDSKMV0-2" value="Obudowa&lt;br&gt;nr. 11 / ilość 1" style="rounded=1;whiteSpace=wrap;html=1;fillColor=#F19C99;" vertex="1" parent="1">
          <mxGeometry x="30" y="240" width="120" height="60" as="geometry" />
        </mxCell>
        <mxCell id="B0ij_Wk3o3_kxpDSKMV0-3" value="Przewód&lt;br style=&quot;border-color: var(--border-color);&quot;&gt;nr. 12 / ilość 1" style="rounded=1;whiteSpace=wrap;html=1;fillColor=#F19C99;" vertex="1" parent="1">
          <mxGeometry x="400" y="240" width="120" height="60" as="geometry" />
        </mxCell>
        <mxCell id="B0ij_Wk3o3_kxpDSKMV0-4" value="Nakładki na przełączniki&lt;br style=&quot;border-color: var(--border-color);&quot;&gt;nr. 13 / ilość 84" style="rounded=1;whiteSpace=wrap;html=1;fillColor=#F19C99;" vertex="1" parent="1">
          <mxGeometry x="577" y="240" width="120" height="60" as="geometry" />
        </mxCell>
        <mxCell id="B0ij_Wk3o3_kxpDSKMV0-27" style="edgeStyle=orthogonalEdgeStyle;rounded=0;orthogonalLoop=1;jettySize=auto;html=1;exitX=0.5;exitY=1;exitDx=0;exitDy=0;entryX=0.5;entryY=0;entryDx=0;entryDy=0;" edge="1" parent="1" source="B0ij_Wk3o3_kxpDSKMV0-8" target="B0ij_Wk3o3_kxpDSKMV0-19">
          <mxGeometry relative="1" as="geometry" />
        </mxCell>
        <mxCell id="B0ij_Wk3o3_kxpDSKMV0-28" style="edgeStyle=orthogonalEdgeStyle;rounded=0;orthogonalLoop=1;jettySize=auto;html=1;exitX=0.5;exitY=1;exitDx=0;exitDy=0;entryX=0.5;entryY=0;entryDx=0;entryDy=0;" edge="1" parent="1" source="B0ij_Wk3o3_kxpDSKMV0-8" target="B0ij_Wk3o3_kxpDSKMV0-20">
          <mxGeometry relative="1" as="geometry" />
        </mxCell>
        <mxCell id="B0ij_Wk3o3_kxpDSKMV0-8" value="Zespół płyty głównej PCB&lt;br&gt;nr 111 / ilość 1" style="rounded=1;whiteSpace=wrap;html=1;fillColor=#FFB570;" vertex="1" parent="1">
          <mxGeometry x="-460" y="340" width="120" height="60" as="geometry" />
        </mxCell>
        <mxCell id="B0ij_Wk3o3_kxpDSKMV0-9" value="Płyta montażowa&lt;br&gt;nr 112 / ilość 1" style="rounded=1;whiteSpace=wrap;html=1;fillColor=#FFB570;" vertex="1" parent="1">
          <mxGeometry x="-280" y="340" width="120" height="60" as="geometry" />
        </mxCell>
        <mxCell id="B0ij_Wk3o3_kxpDSKMV0-31" style="edgeStyle=orthogonalEdgeStyle;rounded=0;orthogonalLoop=1;jettySize=auto;html=1;exitX=0.5;exitY=1;exitDx=0;exitDy=0;entryX=0.5;entryY=0;entryDx=0;entryDy=0;" edge="1" parent="1" source="B0ij_Wk3o3_kxpDSKMV0-10" target="B0ij_Wk3o3_kxpDSKMV0-29">
          <mxGeometry relative="1" as="geometry" />
        </mxCell>
        <mxCell id="B0ij_Wk3o3_kxpDSKMV0-32" style="edgeStyle=orthogonalEdgeStyle;rounded=0;orthogonalLoop=1;jettySize=auto;html=1;exitX=0.5;exitY=1;exitDx=0;exitDy=0;entryX=0.5;entryY=0;entryDx=0;entryDy=0;" edge="1" parent="1" source="B0ij_Wk3o3_kxpDSKMV0-10" target="B0ij_Wk3o3_kxpDSKMV0-30">
          <mxGeometry relative="1" as="geometry" />
        </mxCell>
        <mxCell id="B0ij_Wk3o3_kxpDSKMV0-10" value="Obudowa dolna&lt;br&gt;nr 113 / ilość 1" style="rounded=1;whiteSpace=wrap;html=1;fillColor=#FFB570;" vertex="1" parent="1">
          <mxGeometry x="-100" y="340" width="120" height="60" as="geometry" />
        </mxCell>
        <mxCell id="B0ij_Wk3o3_kxpDSKMV0-35" style="edgeStyle=orthogonalEdgeStyle;rounded=0;orthogonalLoop=1;jettySize=auto;html=1;exitX=0.5;exitY=1;exitDx=0;exitDy=0;entryX=0.5;entryY=0;entryDx=0;entryDy=0;" edge="1" parent="1" source="B0ij_Wk3o3_kxpDSKMV0-11" target="B0ij_Wk3o3_kxpDSKMV0-33">
          <mxGeometry relative="1" as="geometry" />
        </mxCell>
        <mxCell id="B0ij_Wk3o3_kxpDSKMV0-36" style="edgeStyle=orthogonalEdgeStyle;rounded=0;orthogonalLoop=1;jettySize=auto;html=1;exitX=0.5;exitY=1;exitDx=0;exitDy=0;entryX=0.5;entryY=0;entryDx=0;entryDy=0;" edge="1" parent="1" source="B0ij_Wk3o3_kxpDSKMV0-11" target="B0ij_Wk3o3_kxpDSKMV0-34">
          <mxGeometry relative="1" as="geometry" />
        </mxCell>
        <mxCell id="B0ij_Wk3o3_kxpDSKMV0-11" value="Obudowa górna&lt;br&gt;nr 114 / ilość 1" style="rounded=1;whiteSpace=wrap;html=1;fillColor=#FFB570;" vertex="1" parent="1">
          <mxGeometry x="220" y="340" width="120" height="60" as="geometry" />
        </mxCell>
        <mxCell id="B0ij_Wk3o3_kxpDSKMV0-12" value="Śruby&lt;br&gt;nr 115 / ilość 13" style="rounded=1;whiteSpace=wrap;html=1;fillColor=#FFB570;" vertex="1" parent="1">
          <mxGeometry x="400" y="340" width="120" height="60" as="geometry" />
        </mxCell>
        <mxCell id="B0ij_Wk3o3_kxpDSKMV0-24" style="edgeStyle=orthogonalEdgeStyle;rounded=0;orthogonalLoop=1;jettySize=auto;html=1;exitX=0.5;exitY=1;exitDx=0;exitDy=0;entryX=0.5;entryY=0;entryDx=0;entryDy=0;" edge="1" parent="1" source="B0ij_Wk3o3_kxpDSKMV0-19" target="B0ij_Wk3o3_kxpDSKMV0-21">
          <mxGeometry relative="1" as="geometry" />
        </mxCell>
        <mxCell id="B0ij_Wk3o3_kxpDSKMV0-25" style="edgeStyle=orthogonalEdgeStyle;rounded=0;orthogonalLoop=1;jettySize=auto;html=1;exitX=0.5;exitY=1;exitDx=0;exitDy=0;entryX=0.5;entryY=0;entryDx=0;entryDy=0;" edge="1" parent="1" source="B0ij_Wk3o3_kxpDSKMV0-19" target="B0ij_Wk3o3_kxpDSKMV0-22">
          <mxGeometry relative="1" as="geometry" />
        </mxCell>
        <mxCell id="B0ij_Wk3o3_kxpDSKMV0-26" style="edgeStyle=orthogonalEdgeStyle;rounded=0;orthogonalLoop=1;jettySize=auto;html=1;exitX=0.5;exitY=1;exitDx=0;exitDy=0;entryX=0.5;entryY=0;entryDx=0;entryDy=0;" edge="1" parent="1" source="B0ij_Wk3o3_kxpDSKMV0-19" target="B0ij_Wk3o3_kxpDSKMV0-23">
          <mxGeometry relative="1" as="geometry" />
        </mxCell>
        <mxCell id="B0ij_Wk3o3_kxpDSKMV0-19" value="Płyta główna PCB&lt;br&gt;nr 1.1.1.1 / ilość 1" style="rounded=1;whiteSpace=wrap;html=1;fillColor=#FFF2CC;" vertex="1" parent="1">
          <mxGeometry x="-540" y="440" width="120" height="60" as="geometry" />
        </mxCell>
        <mxCell id="B0ij_Wk3o3_kxpDSKMV0-20" value="Przełączniki&lt;br&gt;nr 1.1.1.2 / ilość 84" style="rounded=1;whiteSpace=wrap;html=1;fillColor=#FFF2CC;" vertex="1" parent="1">
          <mxGeometry x="-380" y="440" width="120" height="60" as="geometry" />
        </mxCell>
        <mxCell id="B0ij_Wk3o3_kxpDSKMV0-21" value="Stabilizatory&lt;br&gt;nr 11111 / ilość 1" style="rounded=1;whiteSpace=wrap;html=1;fillColor=#FFF2CC;" vertex="1" parent="1">
          <mxGeometry x="-700" y="555" width="120" height="60" as="geometry" />
        </mxCell>
        <mxCell id="B0ij_Wk3o3_kxpDSKMV0-22" value="LED&lt;br&gt;nr 11112 / ilość 84" style="rounded=1;whiteSpace=wrap;html=1;fillColor=#FFF2CC;" vertex="1" parent="1">
          <mxGeometry x="-540" y="555" width="120" height="60" as="geometry" />
        </mxCell>
        <mxCell id="B0ij_Wk3o3_kxpDSKMV0-23" value="Baza płyty&lt;br&gt;nr 11113 / ilość 1" style="rounded=1;whiteSpace=wrap;html=1;fillColor=#FFF2CC;" vertex="1" parent="1">
          <mxGeometry x="-380" y="555" width="120" height="60" as="geometry" />
        </mxCell>
        <mxCell id="B0ij_Wk3o3_kxpDSKMV0-29" value="Korpus&lt;br&gt;nr 1.1.3.1 / ilość 1" style="rounded=1;whiteSpace=wrap;html=1;fillColor=#FFF2CC;" vertex="1" parent="1">
          <mxGeometry x="-180" y="440" width="120" height="60" as="geometry" />
        </mxCell>
        <mxCell id="B0ij_Wk3o3_kxpDSKMV0-30" value="Pianka&lt;br&gt;nr 1.1.3.2 / ilość 1" style="rounded=1;whiteSpace=wrap;html=1;fillColor=#FFF2CC;" vertex="1" parent="1">
          <mxGeometry x="-20" y="440" width="120" height="60" as="geometry" />
        </mxCell>
        <mxCell id="B0ij_Wk3o3_kxpDSKMV0-33" value="Korpus&lt;br&gt;nr 1.1.3.1 / ilość 1" style="rounded=1;whiteSpace=wrap;html=1;fillColor=#FFF2CC;" vertex="1" parent="1">
          <mxGeometry x="140" y="440" width="120" height="60" as="geometry" />
        </mxCell>
        <mxCell id="B0ij_Wk3o3_kxpDSKMV0-34" value="Pianka&lt;br&gt;nr 1132 / ilość 1" style="rounded=1;whiteSpace=wrap;html=1;fillColor=#FFD966;" vertex="1" parent="1">
          <mxGeometry x="300" y="440" width="120" height="60" as="geometry" />
        </mxCell>
        <mxCell id="B0ij_Wk3o3_kxpDSKMV0-40" value="Płyta główna PCB&lt;br&gt;nr 1111 / ilość 1" style="rounded=1;whiteSpace=wrap;html=1;fillColor=#FFD966;" vertex="1" parent="1">
          <mxGeometry x="-540" y="440" width="120" height="60" as="geometry" />
        </mxCell>
        <mxCell id="B0ij_Wk3o3_kxpDSKMV0-41" value="Przełączniki&lt;br&gt;nr 1112 / ilość 84" style="rounded=1;whiteSpace=wrap;html=1;fillColor=#FFD966;" vertex="1" parent="1">
          <mxGeometry x="-380" y="440" width="120" height="60" as="geometry" />
        </mxCell>
        <mxCell id="B0ij_Wk3o3_kxpDSKMV0-42" value="Korpus&lt;br&gt;nr 1131 / ilość 1" style="rounded=1;whiteSpace=wrap;html=1;fillColor=#FFD966;" vertex="1" parent="1">
          <mxGeometry x="-180" y="440" width="120" height="60" as="geometry" />
        </mxCell>
        <mxCell id="B0ij_Wk3o3_kxpDSKMV0-43" value="Pianka&lt;br&gt;nr 1132 / ilość 1" style="rounded=1;whiteSpace=wrap;html=1;fillColor=#FFD966;" vertex="1" parent="1">
          <mxGeometry x="-20" y="440" width="120" height="60" as="geometry" />
        </mxCell>
        <mxCell id="B0ij_Wk3o3_kxpDSKMV0-44" value="Korpus&lt;br&gt;nr 1131 / ilość 1" style="rounded=1;whiteSpace=wrap;html=1;fillColor=#FFD966;" vertex="1" parent="1">
          <mxGeometry x="140" y="440" width="120" height="60" as="geometry" />
        </mxCell>
      </root>
    </mxGraphModel>
  </diagram>
</mxfile>
